<?xml version="1.0" encoding="UTF-8"?>
<svg xmlns="http://www.w3.org/2000/svg" id="Layer_1" data-name="Layer 1" viewBox="0 0 24 24">
  <path d="M3.166,2.914c-1.377,0-2.166,.796-2.166,2.185s.789,2.185,2.166,2.185,2.165-.796,2.165-2.185-.789-2.185-2.165-2.185Z"/>
  <path d="M8.745,6.099h13.255c.553,0,1-.448,1-1s-.447-1-1-1H8.745c-.553,0-1,.448-1,1s.447,1,1,1Z"/>
  <path d="M3.166,9.815c-1.377,0-2.166,.796-2.166,2.185s.789,2.185,2.166,2.185,2.165-.796,2.165-2.185-.789-2.185-2.165-2.185Z"/>
  <path d="M22,11H8.745c-.553,0-1,.448-1,1s.447,1,1,1h13.255c.553,0,1-.448,1-1s-.447-1-1-1Z"/>
  <path d="M3.166,16.716c-1.377,0-2.166,.796-2.166,2.185s.789,2.185,2.166,2.185,2.165-.796,2.165-2.185-.789-2.185-2.165-2.185Z"/>
  <path d="M22,17.901H8.745c-.553,0-1,.448-1,1s.447,1,1,1h13.255c.553,0,1-.448,1-1s-.447-1-1-1Z"/>
</svg>
